<?xml version="1.0" encoding="utf-8"?>
<!-- Generator: Adobe Illustrator 26.0.1, SVG Export Plug-In . SVG Version: 6.00 Build 0)  -->
<svg version="1.1" id="Layer_1" xmlns="http://www.w3.org/2000/svg" xmlns:xlink="http://www.w3.org/1999/xlink" x="0px" y="0px"
	 viewBox="0 0 1287.39 334.75" style="enable-background:new 0 0 1287.39 334.75;" xml:space="preserve">
<style type="text/css">
	.st0{fill:#FFFFFF;}
</style>
<path class="st0" d="M235.41,237.58l-68.24-68.34l0-6.02l6.11,0l68.27,68.11l0.15,0.14c8.4,7.48,19.26,11.6,30.56,11.6
	c25.38,0,46.03-20.63,46.03-46c0-16.7-9.06-31.91-23.22-40c14.15-8.16,23.22-23.33,23.22-39.9c0-25.39-20.65-46.04-46.03-46.04
	c-11.27,0-22.12,4.13-30.56,11.63l-68.32,68.22l-6.22,0l0-3.26l0-2.71l68.11-68.25l0.15-0.16c7.49-8.43,11.61-19.29,11.61-30.57
	C247.02,20.65,226.37,0,200.99,0c-16.69,0-31.89,9.07-39.97,23.23C152.86,9.07,137.68,0,121.09,0C95.72,0,75.07,20.65,75.07,46.03
	c0,11.26,4.12,22.12,11.6,30.57l68.25,68.31l0,6.07l-5.92,0L80.74,82.88l-0.15-0.15c-8.44-7.48-19.29-11.6-30.56-11.6
	c-25.38,0-46.03,20.64-46.03,46.01c0,16.7,9.06,31.9,23.22,39.98c-14.15,8.16-23.22,23.35-23.22,39.93
	c0,25.38,20.65,46.03,46.03,46.03c11.27,0,22.12-4.13,30.56-11.63l68.31-68.22l6.03,0v5.93l-68.11,68.26l-0.15,0.16
	c-7.48,8.44-11.61,19.29-11.61,30.55c0,25.38,20.64,46.03,46.01,46.03c16.71,0,31.91-9.06,39.98-23.21
	c8.16,14.15,23.35,23.21,39.92,23.21c25.38,0,46.03-20.65,46.03-46.03C247.02,256.89,242.89,246.04,235.41,237.58z M248.84,92.69
	c6.32-6.06,14.64-9.4,23.41-9.4c18.68,0,33.88,15.2,33.88,33.89c0,18.68-15.2,33.87-33.88,33.87l-81.14-0.04L248.84,92.69z
	 M272.25,163.19c18.68,0,33.88,15.2,33.88,33.89c0,18.67-15.2,33.87-33.88,33.87c-8.78,0-17.09-3.34-23.34-9.34l-57.87-58.39
	L272.25,163.19z M73.43,221.51c-6.31,6.07-14.63,9.41-23.41,9.41c-18.68,0-33.88-15.2-33.88-33.87c0-18.69,15.2-33.9,33.88-33.9
	l81.14,0.05L73.43,221.51z M50.02,151.02c-18.68,0-33.88-15.2-33.88-33.88c0-18.67,15.2-33.86,33.88-33.86
	c8.78,0,17.09,3.33,23.34,9.32l57.87,58.4L50.02,151.02z M121.08,302.01c-18.67,0-33.87-15.2-33.87-33.88
	c0-8.76,3.34-17.08,9.34-23.35l58.38-57.87l0.01,81.22C154.95,286.81,139.76,302.01,121.08,302.01z M154.95,127.18L96.64,69.44
	c-6.07-6.33-9.42-14.65-9.42-23.41c0-18.68,15.2-33.88,33.88-33.88c18.69,0,33.89,15.2,33.89,33.87L154.95,127.18z M200.99,12.16
	c18.68,0,33.87,15.2,33.87,33.88c0,8.78-3.34,17.09-9.33,23.34l-58.4,57.88l-0.01-81.22C167.13,27.35,182.32,12.16,200.99,12.16z
	 M200.98,302.01c-18.68,0-33.87-15.2-33.87-33.88l0.02-81.14l58.32,57.72c6.07,6.36,9.41,14.67,9.41,23.42
	C234.86,286.81,219.66,302.01,200.98,302.01z"/>
<g>
	<path class="st0" d="M481.89,316.96v-40.68h13.27c4.25,0,7.57,0.92,9.97,2.75c2.4,1.83,3.6,4.59,3.6,8.25
		c0,1.75-0.54,3.32-1.62,4.71c-1.08,1.39-2.51,2.45-4.3,3.17c2.66,0.37,4.77,1.53,6.33,3.46c1.55,1.94,2.33,4.22,2.33,6.85
		c0,3.73-1.21,6.57-3.63,8.54c-2.42,1.96-5.7,2.95-9.83,2.95H481.89z M487.39,293.57h8.91c2.05,0,3.72-0.56,5-1.69
		c1.28-1.13,1.93-2.7,1.93-4.71c0-2.2-0.69-3.84-2.08-4.93c-1.39-1.09-3.39-1.63-5.99-1.63h-7.77V293.57z M487.39,297.88v14.78
		h10.62c2.51,0,4.47-0.62,5.85-1.86c1.39-1.24,2.08-2.99,2.08-5.27c0-2.25-0.71-4.07-2.12-5.45c-1.42-1.38-3.33-2.11-5.73-2.21
		h-0.36H487.39z"/>
	<path class="st0" d="M539.27,306.48h-15.31l-3.63,10.48h-5.62l14.67-40.68h4.72l14.36,40.68h-5.62L539.27,306.48z M525.55,301.87
		h12.15l-5.92-17.46h-0.17L525.55,301.87z M529.77,272.82l-0.03-4.3c1.42-0.07,2.43-0.26,3.03-0.56c0.61-0.3,0.91-0.79,0.91-1.48
		c0-0.72-0.41-1.27-1.22-1.62c-0.81-0.35-1.9-0.53-3.26-0.53l0.2-3.02c2.74,0,4.84,0.48,6.31,1.44c1.47,0.96,2.21,2.24,2.21,3.84
		c0,1.3-0.4,2.3-1.2,2.98c-0.8,0.68-1.81,1.1-3.02,1.27l-0.03,1.98H529.77z"/>
	<path class="st0" d="M585.2,300.25c0,4.97-1.54,9.1-4.62,12.38c-3.08,3.28-7.08,4.92-12,4.92c-4.75,0-8.61-1.64-11.58-4.92
		c-2.97-3.28-4.46-7.4-4.46-12.38v-7.24c0-4.95,1.49-9.08,4.46-12.38c2.97-3.3,6.83-4.94,11.58-4.94c4.92,0,8.92,1.64,12,4.93
		c3.08,3.29,4.62,7.42,4.62,12.39V300.25z M579.7,292.96c0-3.72-1.01-6.78-3.02-9.16c-2.01-2.38-4.71-3.58-8.1-3.58
		c-3.2,0-5.76,1.19-7.67,3.58c-1.91,2.38-2.86,5.44-2.86,9.16v7.29c0,3.76,0.95,6.84,2.86,9.22c1.91,2.38,4.47,3.58,7.67,3.58
		c3.41,0,6.11-1.19,8.12-3.56c2-2.37,3-5.45,3-9.23V292.96z"/>
	<path class="st0" d="M638.12,316.96h-5.5v-17.96h-19.75v17.96h-5.5v-40.68h5.5v18.38h19.75v-18.38h5.5V316.96z"/>
	<path class="st0" d="M653.71,316.96h-5.53v-40.68h5.53V316.96z"/>
	<path class="st0" d="M686,298.1h-16.71v14.56h19.56v4.3h-25.06v-40.68h24.75v4.33h-19.25v13.16H686V298.1z M678.88,266.03h-5.53
		l-7.49,7.18l0.06,0.17h4.72l5.48-5.2l5.48,5.2h4.75l0.06-0.17L678.88,266.03z M685.69,269.52l-0.03-3.72
		c1.23-0.07,2.1-0.23,2.61-0.48c0.51-0.24,0.77-0.66,0.77-1.26c0-0.63-0.35-1.1-1.05-1.4c-0.7-0.3-1.63-0.45-2.78-0.45l0.17-2.63
		c2.36,0,4.19,0.41,5.46,1.22c1.27,0.81,1.91,1.91,1.91,3.31c0,1.14-0.35,2-1.05,2.6c-0.7,0.6-1.58,0.96-2.64,1.09l-0.03,1.7H685.69
		z"/>
	<path class="st0" d="M715.53,309.33h0.17l12.99-33.05h6.84v40.68h-5.5v-30.48l-0.17-0.03l-12.32,30.51h-3.83l-12.68-31.51
		l-0.17,0.03v31.49h-5.5v-40.68h7.24L715.53,309.33z"/>
	<path class="st0" d="M790.04,316.96h-5.5l-19.58-31.07l-0.17,0.06v31.01h-5.5v-40.68h5.5l19.59,31.04l0.17-0.06v-30.98h5.5V316.96z
		"/>
	<path class="st0" d="M830.33,316.96h-5.5v-17.96h-19.75v17.96h-5.5v-40.68h5.5v18.38h19.75v-18.38h5.5V316.96z"/>
	<path class="st0" d="M861.34,306.48h-15.31l-3.63,10.48h-5.62l14.67-40.68h4.72l14.36,40.68h-5.62L861.34,306.48z M862.29,271.53
		v0.7h-4.5l-4.11-4.13l-4.08,4.13h-4.47v-0.73l6.87-6.62h3.35L862.29,271.53z M847.62,301.87h12.15l-5.92-17.46h-0.17L847.62,301.87
		z"/>
	<path class="st0" d="M907.27,316.96h-5.5l-19.58-31.07l-0.17,0.06v31.01h-5.5v-40.68h5.5l19.59,31.04l0.17-0.06v-30.98h5.5V316.96z
		"/>
	<path class="st0" d="M959.46,280.61h-13.41v36.35h-5.5v-36.35H927.3v-4.33h32.16V280.61z"/>
	<path class="st0" d="M996,316.96h-5.5v-17.96h-19.75v17.96h-5.5v-40.68h5.5v18.38h19.75v-18.38h5.5V316.96z"/>
	<path class="st0" d="M1036.57,300.25c0,4.97-1.54,9.1-4.62,12.38c-3.08,3.28-7.08,4.92-12,4.92c-4.75,0-8.61-1.64-11.58-4.92
		c-2.97-3.28-4.46-7.4-4.46-12.38v-7.24c0-4.95,1.49-9.08,4.46-12.38c2.97-3.3,6.83-4.94,11.58-4.94c4.92,0,8.92,1.64,12,4.93
		c3.08,3.29,4.62,7.42,4.62,12.39V300.25z M1031.06,292.96c0-3.72-1.01-6.78-3.02-9.16c-2.01-2.38-4.71-3.58-8.1-3.58
		c-3.2,0-5.76,1.19-7.67,3.58c-1.91,2.38-2.86,5.44-2.86,9.16v7.29c0,3.76,0.96,6.84,2.86,9.22c1.91,2.38,4.47,3.58,7.67,3.58
		c3.41,0,6.11-1.19,8.12-3.56c2-2.37,3-5.45,3-9.23V292.96z M1023.3,326.6h-6.09v-5.59h6.09V326.6z"/>
</g>
<g>
	<path class="st0" d="M450.46,81.89c-5.22-3.83-11.02-6.38-17.35-7.65c-6.34-1.28-16.18-1.91-29.52-1.91H327.2v2.75h0.88
		c5.4,0.32,9.8,1.26,13.19,2.82c3.37,1.55,6.16,3.92,8.35,7.11c1.53,2.31,2.6,5.33,3.24,9.04c0.62,3.71,0.93,8.98,0.93,15.84v88.14
		c0,8.2-0.46,14.26-1.39,18.16c-0.93,3.9-2.75,7.13-5.44,9.69c-2.28,2.23-4.92,3.9-7.93,4.97c-3,1.07-6.94,1.73-11.84,1.97v2.75
		h80.95v-2.75c-4.9-0.24-8.84-0.89-11.84-1.97c-3.01-1.06-5.65-2.74-7.92-4.97c-2.61-2.56-4.42-5.79-5.39-9.74
		c-0.98-3.95-1.45-9.99-1.45-18.11v-42.94h24.83c10.97,0,17.9-0.12,20.78-0.36c9.03-0.72,16.71-2.83,23.04-6.34
		c12.16-6.77,18.25-17.46,18.25-32.04C468.46,101.98,462.46,90.5,450.46,81.89z M425.39,143.11c-3.55,3.11-7.58,5.25-12.1,6.4
		c-4.53,1.16-10.96,1.73-19.33,1.73h-12.41V76.03h10.64c6.92,0,11.36,0.08,13.3,0.24c7.09,0.72,13.21,3.11,18.36,7.18
		c4.48,3.43,7.92,7.88,10.33,13.34c2.4,5.46,3.6,11.45,3.6,17.99C437.79,126.58,433.66,136.01,425.39,143.11z"/>
	<path class="st0" d="M575.55,221.87c-0.67-2.52-1.01-6.47-1.01-11.89l-0.12-9.08v-34.88c0-8.03-0.84-14.07-2.56-18.09
		c-1.7-4.01-4.83-7.43-9.4-10.2c-6.39-3.75-14.49-5.62-24.28-5.62c-7.73,0-14.62,1.43-20.67,4.3c-3.15,1.43-5.87,3.11-8.11,5.02
		c-2.23,1.9-4.8,4.57-7.71,8v-81.9l-35.87,4.3v2.63c3.74,0.24,6.62,0.84,8.6,1.79c2,0.96,3.7,2.55,5.1,4.77
		c1.42,2.07,2.32,4.78,2.74,8.12c0.43,3.35,0.63,9.07,0.63,17.19v93.73c0,7-0.19,12.35-0.57,16.06c-0.37,3.69-1.01,6.44-1.92,8.29
		c-1.33,2.79-3.07,4.76-5.24,5.91c-2.14,1.15-5.72,2.04-10.7,2.68v2.51h55v-2.51c-6.2-1.12-10.48-2.75-12.8-4.89
		c-1.9-1.67-3.19-3.78-3.85-6.27c-0.66-2.52-1-6.47-1-11.89l-0.12-8.84v-19.1c0-30.41,10.01-45.62,30.07-45.62
		c7.7,0,13.67,2.35,17.89,7.04c2.17,2.47,3.69,5.38,4.6,8.73c0.92,3.33,1.37,7.88,1.37,13.6v37.87c0,6.68-0.3,11.74-0.87,15.17
		c-0.58,3.41-1.62,6.13-3.1,8.12c-1.49,1.92-3.18,3.27-5.04,4.05c-1.86,0.8-4.99,1.48-9.39,2.03v2.51h55v-2.51
		c-6.23-1.12-10.5-2.75-12.83-4.89C577.49,226.47,576.21,224.36,575.55,221.87z"/>
	<path class="st0" d="M689.32,224.09c-1.33-2.07-2.22-4.76-2.69-8.07c-0.46-3.31-0.7-9.06-0.7-17.26v-64.84h-36.81v2.63
		c6.34,1.04,10.67,2.63,13.01,4.78c1.92,1.75,3.2,3.85,3.83,6.32c0.62,2.47,0.93,6.4,0.93,11.82l0.12,8.84v23.41
		c0,9.31-0.4,16.01-1.18,20.06c-0.79,4.08-2.4,7.64-4.8,10.75c-2.34,3.03-5.55,5.42-9.62,7.16c-4.1,1.76-8.47,2.63-13.14,2.63
		c-4.24,0-8.07-0.77-11.49-2.32c-3.42-1.55-6.03-3.69-7.87-6.4c-1.67-2.63-2.82-5.99-3.44-10.09c-0.62-4.11-0.92-10.43-0.92-18.96
		v-60.62h-36.83v2.63c6.27,1.04,10.59,2.63,13.03,4.78c1.82,1.75,3.07,3.85,3.75,6.32c0.66,2.47,0.99,6.43,0.99,11.82l0.14,9.08
		v41.57c0,8.76,3.09,15.52,9.27,20.3c6.34,4.85,14.73,7.28,25.16,7.28c14.28,0,26.63-4.97,37.06-14.92c0,5.09,0.54,10.08,1.63,14.92
		l34.43-4.42v-2.51c-3.75-0.24-6.62-0.85-8.63-1.85C692.57,227.93,690.82,226.32,689.32,224.09z"/>
	<path class="st0" d="M1046.72,223.52c-1.34-2.07-2.23-4.76-2.7-8.07c-0.46-3.31-0.69-9.06-0.69-17.26v-64.85h-36.81v2.63
		c6.34,1.04,10.68,2.63,13.02,4.79c1.92,1.75,3.2,3.85,3.83,6.32c0.62,2.47,0.93,6.4,0.93,11.82l0.13,8.83v23.41
		c0,9.31-0.4,16.01-1.18,20.06c-0.8,4.06-2.4,7.64-4.82,10.75c-2.33,3.03-5.53,5.42-9.61,7.16c-4.09,1.75-8.46,2.63-13.13,2.63
		c-4.24,0-8.08-0.77-11.49-2.32c-3.41-1.56-6.03-3.7-7.87-6.4c-1.67-2.62-2.82-5.99-3.44-10.09c-0.62-4.11-0.93-10.43-0.93-18.96
		v-60.62h-36.83v2.63c6.27,1.04,10.6,2.63,13.04,4.79c1.83,1.75,3.08,3.85,3.75,6.32c0.68,2.47,1.01,6.42,1.01,11.82l0.12,9.07
		v41.57c0,8.76,3.09,15.52,9.27,20.3c6.32,4.85,14.73,7.28,25.16,7.28c14.28,0,26.64-4.97,37.07-14.92c0,5.09,0.55,10.07,1.63,14.92
		l34.44-4.42v-2.51c-3.76-0.24-6.64-0.85-8.65-1.85C1049.97,227.35,1048.22,225.75,1046.72,223.52z"/>
	<path class="st0" d="M1152.74,216.14c-0.37,3.71-1.01,6.47-1.93,8.3c-1.33,2.79-3.07,4.76-5.24,5.91
		c-2.16,1.16-5.72,2.05-10.71,2.69v2.51h55.05v-2.51c-6.23-1.12-10.51-2.75-12.83-4.89c-1.9-1.67-3.19-3.77-3.85-6.27
		c-0.66-2.51-1-6.47-1-11.89v-50.63c0-8.68-3.19-15.37-9.59-20.08c-6.49-4.77-15.04-7.16-25.67-7.16c-14.2,0-26.45,4.97-36.75,14.91
		v-1.93c0-4-0.58-8.33-1.75-12.98l-34.13,4.3v2.51c3.75,0.24,6.6,0.84,8.59,1.84c1.99,1,3.69,2.6,5.11,4.82
		c1.41,2.06,2.32,4.73,2.74,8.03c0.41,3.3,0.62,9.02,0.62,17.19v29.39c0,6.97-0.19,12.31-0.56,16c-0.37,3.7-1.02,6.44-1.94,8.26
		c-1.33,2.78-3.07,4.74-5.22,5.9c-2.17,1.14-5.74,2.03-10.72,2.67v2.51h55.05v-2.51c-6.22-1.12-10.49-2.75-12.82-4.89
		c-1.93-1.67-3.2-3.77-3.87-6.27c-0.66-2.51-1-6.47-1-11.89l-0.12-8.84v-23.41c0-9.31,0.4-15.98,1.18-19.99
		c0.78-4.03,2.42-7.63,4.9-10.82c2.33-3.03,5.47-5.4,9.52-7.16c4.01-1.76,8.34-2.63,12.99-2.63c4.3,0,8.24,0.78,11.8,2.32
		c3.56,1.55,6.3,3.72,8.21,6.51c1.74,2.47,2.91,5.74,3.54,9.79c0.62,4.06,0.93,10.43,0.93,19.12v25.31
		C1153.3,207.13,1153.11,212.45,1152.74,216.14z"/>
	<path class="st0" d="M1282.85,134.06c-2.54-1.67-5.87-2.51-10.01-2.51c-3.72,0-7.16,0.62-10.32,1.86
		c-3.15,1.24-6.74,3.32-10.7,6.27c-8.43-5.42-16.69-8.13-24.75-8.13c-5.33,0-10.51,1.04-15.56,3.11c-5.07,2.07-9.44,4.97-13.14,8.7
		c-6.32,6.3-9.49,13.46-9.49,21.47c0,6.31,2.02,12.05,6.06,17.26c4.05,5.22,9.73,9.42,17.05,12.59c-7.58,1.85-12.79,3.56-15.65,5.16
		c-5.55,3.28-8.33,7.76-8.33,13.43c0,5.37,2.61,9.95,7.83,13.8c5.05,3.68,11.06,5.71,19.32,5.71l19.75,2.55
		c8.08,0.85,17.55,7.61,22,13.5c5.63,7.44,6.43,15.78,6.38,21.69c-0.11,15.84-5.95,26.89-12.86,31.88
		c-6.75,4.88-14.58,8.2-25.83,7.53c-11.05-0.62-21.09-5.47-26.79-11.04c-5.1-5-9.14-13.6-8.29-22c0.48-4.7,2.27-9.18,4.5-11.73
		c2.23-2.56,4.01-3.52,7.52-4.11c1.7-0.28,2.72-0.29,4.45,0.32c1.58,0.54,2.78,2.28,4.21,4.52l2.28-0.6v-1.32
		c0-3.51-1.19-6.34-3.59-8.49c-2.41-2.15-5.14-3.06-8.93-3.21c-3.27-0.16-8.45,1.81-11.9,5.66c-4.82,5.39-6.25,9.22-7.38,17.15
		c-1.18,8.33,2.14,17.11,6.8,23.39c8.57,11.46,20.87,16.57,39.26,16.57c17.11,0,29.88-4.51,38.4-13.03c11.3-11.29,13.51-26,14-36.35
		c0.49-10.23-2.7-26.07-14.6-36.27c-3.49-3.02-11.05-8.08-19.34-10.1c-9.42-2.32-14.14-1.7-23.81-2.55l-5.84-0.43
		c-13.29,0.43-16.58-4.57-16.2-7.99c0.65-5.82,6.47-8.72,18.85-9.43c9.03-0.56,14.57-1.14,16.26-1.38
		c5.66-1.04,10.74-3.24,15.63-6.27c9.79-6.06,14.43-14.32,14.43-24.77c0-8.37-3.44-16.5-10.29-24.39c3.44-2.95,6.71-4.44,9.82-4.44
		c2.93,0,5.21,0.97,6.8,2.88l2.9,3.59c2.2,2.71,4.68,4.06,7.38,4.06c1.79,0,3.27-0.61,4.46-1.84c1.18-1.23,1.78-2.78,1.78-4.61
		C1287.39,138.69,1285.88,136.14,1282.85,134.06z M1241.44,186.75c-3.36,5.37-8.06,8.05-14.11,8.05c-5.94,0-10.84-2.7-14.65-8.12
		c-3.83-5.42-5.74-12.41-5.74-21c0-4.13,0.54-8.26,1.63-12.41c1.1-4.13,2.56-7.64,4.42-10.49c3.68-5.73,8.56-8.6,14.59-8.6
		c5.05,0,9.15,2.19,12.34,6.56c4.36,5.89,6.55,13.76,6.55,23.64C1246.48,173.91,1244.79,181.39,1241.44,186.75z"/>
	<path class="st0" d="M931.64,225.29c-2.58-2.63-4.36-5.9-5.32-9.8c-0.94-3.91-1.44-9.92-1.44-18.06v-88.12
		c0-8.13,0.49-14.16,1.44-18.11c0.96-3.95,2.74-7.2,5.32-9.75c2.34-2.31,4.98-3.99,7.93-5.02c2.97-1.03,6.82-1.67,11.57-1.91v-2.75
		h-79.87v2.75c4.84,0.24,8.73,0.88,11.68,1.91c2.96,1.04,5.61,2.71,7.95,5.02c2.58,2.55,4.34,5.78,5.31,9.68
		c0.96,3.91,1.44,9.97,1.44,18.18v38.38h-88.75v-38.38c0-8.13,0.48-14.16,1.43-18.11c0.96-3.95,2.74-7.2,5.32-9.75
		c2.33-2.31,4.98-3.99,7.93-5.02c2.96-1.03,6.81-1.67,11.56-1.91v-2.75h-79.85v2.75c4.73,0.24,8.61,0.88,11.62,1.91
		c2.99,1.04,5.62,2.71,7.88,5.02c2.65,2.55,4.44,5.78,5.37,9.68c0.91,3.91,1.37,9.97,1.37,18.18v88.12c0,8.21-0.46,14.27-1.37,18.18
		c-0.93,3.91-2.72,7.14-5.37,9.68c-2.26,2.24-4.86,3.89-7.83,4.97c-2.95,1.06-6.84,1.72-11.67,1.96v2.75h79.85v-2.75
		c-4.82-0.24-8.71-0.9-11.68-1.96c-2.96-1.08-5.57-2.74-7.81-4.97c-2.58-2.55-4.36-5.79-5.32-9.74c-0.95-3.95-1.43-9.99-1.43-18.12
		v-44.12h88.75v44.12c0,8.21-0.48,14.27-1.44,18.18c-0.97,3.91-2.74,7.14-5.31,9.68c-2.34,2.24-4.98,3.89-7.95,4.97
		c-2.95,1.06-6.84,1.72-11.68,1.96v2.75h79.87v-2.75c-4.76-0.24-8.61-0.9-11.57-1.96C936.62,229.19,933.98,227.53,931.64,225.29z"/>
</g>
</svg>
