<?xml version="1.0" encoding="utf-8"?>
<!-- Generator: Adobe Illustrator 24.0.0, SVG Export Plug-In . SVG Version: 6.00 Build 0)  -->
<svg version="1.1" id="Layer_1" xmlns="http://www.w3.org/2000/svg" xmlns:xlink="http://www.w3.org/1999/xlink" x="0px" y="0px"
	 viewBox="0 0 200 55" style="enable-background:new 0 0 200 55;" xml:space="preserve">
<style type="text/css">
	.st0{fill:#C3972D;}
</style>
<path class="st0" d="M36.2,39.1L25.6,28.4v-0.9h1l10.6,10.6l0,0c1.3,1.2,3,1.8,4.8,1.8c4,0,7.2-3.2,7.2-7.2c0-2.6-1.4-5-3.6-6.2
	c2.2-1.3,3.6-3.6,3.6-6.2c0-4-3.2-7.2-7.2-7.2c-1.8,0-3.4,0.6-4.8,1.8L26.5,25.6h-1v-0.5v-0.4L36.2,14l0,0c1.2-1.3,1.8-3,1.8-4.8
	c0-4-3.2-7.2-7.2-7.2c-2.6,0-5,1.4-6.2,3.6c-1.3-2.2-3.6-3.6-6.2-3.6c-4,0-7.2,3.2-7.2,7.2c0,1.8,0.6,3.4,1.8,4.8l10.6,10.6v0.9
	h-0.9L12.1,15l0,0c-1.3-1.2-3-1.8-4.8-1.8c-4,0-7.2,3.2-7.2,7.2c0,2.6,1.4,5,3.6,6.2c-2.2,1.3-3.6,3.6-3.6,6.2c0,4,3.2,7.2,7.2,7.2
	c1.8,0,3.4-0.6,4.8-1.8l10.6-10.6h0.9v0.9L13.1,39l0,0c-1.2,1.3-1.8,3-1.8,4.8c0,4,3.2,7.2,7.2,7.2c2.6,0,5-1.4,6.2-3.6
	c1.3,2.2,3.6,3.6,6.2,3.6c4,0,7.2-3.2,7.2-7.2C38,42.1,37.4,40.4,36.2,39.1z M38.3,16.5c1-0.9,2.3-1.5,3.6-1.5
	c2.9,0,5.3,2.4,5.3,5.3c0,2.9-2.4,5.3-5.3,5.3l-12.6,0L38.3,16.5z M41.9,27.5c2.9,0,5.3,2.4,5.3,5.3c0,2.9-2.4,5.3-5.3,5.3
	c-1.4,0-2.7-0.5-3.6-1.5l-9-9.1L41.9,27.5z M11,36.6C10,37.5,8.7,38,7.3,38c-2.9,0-5.3-2.4-5.3-5.3c0-2.9,2.4-5.3,5.3-5.3l12.6,0
	L11,36.6z M7.3,25.6c-2.9,0-5.3-2.4-5.3-5.3c0-2.9,2.4-5.3,5.3-5.3c1.4,0,2.7,0.5,3.6,1.5l9,9.1L7.3,25.6z M18.4,49.1
	c-2.9,0-5.3-2.4-5.3-5.3c0-1.4,0.5-2.7,1.5-3.6l9.1-9l0,12.6C23.7,46.7,21.3,49.1,18.4,49.1z M23.7,21.9l-9.1-9
	c-0.9-1-1.5-2.3-1.5-3.6c0-2.9,2.4-5.3,5.3-5.3c2.9,0,5.3,2.4,5.3,5.3L23.7,21.9z M30.8,4c2.9,0,5.3,2.4,5.3,5.3
	c0,1.4-0.5,2.7-1.5,3.6l-9.1,9l0-12.6C25.6,6.3,27.9,4,30.8,4z M30.8,49.1c-2.9,0-5.3-2.4-5.3-5.3l0-12.6l9.1,9
	c0.9,1,1.5,2.3,1.5,3.6C36.1,46.7,33.7,49.1,30.8,49.1z"/>
<g>
	<path class="st0" d="M74.6,51.4v-6.3h2.1c0.7,0,1.2,0.1,1.6,0.4c0.4,0.3,0.6,0.7,0.6,1.3c0,0.3-0.1,0.5-0.3,0.7
		c-0.2,0.2-0.4,0.4-0.7,0.5c0.4,0.1,0.7,0.2,1,0.5c0.2,0.3,0.4,0.7,0.4,1.1c0,0.6-0.2,1-0.6,1.3c-0.4,0.3-0.9,0.5-1.5,0.5H74.6z
		 M75.4,47.8h1.4c0.3,0,0.6-0.1,0.8-0.3c0.2-0.2,0.3-0.4,0.3-0.7c0-0.3-0.1-0.6-0.3-0.8s-0.5-0.3-0.9-0.3h-1.2L75.4,47.8L75.4,47.8z
		 M75.4,48.5v2.3h1.7c0.4,0,0.7-0.1,0.9-0.3s0.3-0.5,0.3-0.8c0-0.4-0.1-0.6-0.3-0.8c-0.2-0.2-0.5-0.3-0.9-0.3H77H75.4z"/>
	<path class="st0" d="M83.5,49.8h-2.4l-0.6,1.6h-0.9l2.3-6.3h0.7l2.2,6.3h-0.9L83.5,49.8z M81.4,49.1h1.9l-0.9-2.7h0L81.4,49.1z
		 M82,44.6l0-0.7c0.2,0,0.4,0,0.5-0.1c0.1,0,0.1-0.1,0.1-0.2c0-0.1-0.1-0.2-0.2-0.3c-0.1-0.1-0.3-0.1-0.5-0.1l0-0.5
		c0.4,0,0.8,0.1,1,0.2c0.2,0.1,0.3,0.3,0.3,0.6c0,0.2-0.1,0.4-0.2,0.5c-0.1,0.1-0.3,0.2-0.5,0.2l0,0.3H82z"/>
	<path class="st0" d="M90.7,48.8c0,0.8-0.2,1.4-0.7,1.9c-0.5,0.5-1.1,0.8-1.9,0.8c-0.7,0-1.3-0.3-1.8-0.8c-0.5-0.5-0.7-1.2-0.7-1.9
		v-1.1c0-0.8,0.2-1.4,0.7-1.9c0.5-0.5,1.1-0.8,1.8-0.8c0.8,0,1.4,0.3,1.9,0.8c0.5,0.5,0.7,1.2,0.7,1.9V48.8z M89.8,47.7
		c0-0.6-0.2-1.1-0.5-1.4c-0.3-0.4-0.7-0.6-1.3-0.6c-0.5,0-0.9,0.2-1.2,0.6c-0.3,0.4-0.4,0.8-0.4,1.4v1.1c0,0.6,0.1,1.1,0.4,1.4
		c0.3,0.4,0.7,0.6,1.2,0.6c0.5,0,1-0.2,1.3-0.6c0.3-0.4,0.5-0.8,0.5-1.4L89.8,47.7L89.8,47.7z"/>
	<path class="st0" d="M98.9,51.4H98v-2.8H95v2.8h-0.9v-6.3H95V48H98v-2.9h0.9L98.9,51.4L98.9,51.4z"/>
	<path class="st0" d="M101.3,51.4h-0.9v-6.3h0.9V51.4z"/>
	<path class="st0" d="M106.4,48.5h-2.6v2.3h3v0.7h-3.9v-6.3h3.9v0.7h-3v2h2.6L106.4,48.5L106.4,48.5z M105.2,43.5h-0.9l-1.2,1.1l0,0
		h0.7l0.9-0.8l0.9,0.8h0.7l0,0L105.2,43.5z M106.3,44l0-0.6c0.2,0,0.3,0,0.4-0.1c0.1,0,0.1-0.1,0.1-0.2c0-0.1-0.1-0.2-0.2-0.2
		c-0.1,0-0.3-0.1-0.4-0.1l0-0.4c0.4,0,0.7,0.1,0.9,0.2c0.2,0.1,0.3,0.3,0.3,0.5c0,0.2-0.1,0.3-0.2,0.4c-0.1,0.1-0.2,0.1-0.4,0.2
		l0,0.3L106.3,44L106.3,44z"/>
	<path class="st0" d="M111,50.2L111,50.2l2-5.1h1.1v6.3h-0.9v-4.7l0,0l-1.9,4.8h-0.6l-2-4.9l0,0v4.9h-0.9v-6.3h1.1L111,50.2z"/>
	<path class="st0" d="M122.6,51.4h-0.9l-3.1-4.8l0,0v4.8h-0.9v-6.3h0.9l3.1,4.8l0,0v-4.8h0.9V51.4z"/>
	<path class="st0" d="M128.8,51.4H128v-2.8h-3.1v2.8H124v-6.3h0.9V48h3.1v-2.9h0.9V51.4z"/>
	<path class="st0" d="M133.7,49.8h-2.4l-0.6,1.6h-0.9l2.3-6.3h0.7l2.2,6.3h-0.9L133.7,49.8z M133.8,44.4v0.1h-0.7l-0.6-0.6l-0.6,0.6
		h-0.7v-0.1l1.1-1h0.5L133.8,44.4z M131.5,49.1h1.9l-0.9-2.7h0L131.5,49.1z"/>
	<path class="st0" d="M140.8,51.4H140l-3.1-4.8l0,0v4.8H136v-6.3h0.9l3.1,4.8l0,0v-4.8h0.9V51.4z"/>
	<path class="st0" d="M148.9,45.8h-2.1v5.7H146v-5.7h-2.1v-0.7h5L148.9,45.8L148.9,45.8z"/>
	<path class="st0" d="M154.6,51.4h-0.9v-2.8h-3.1v2.8h-0.9v-6.3h0.9V48h3.1v-2.9h0.9V51.4z"/>
	<path class="st0" d="M160.9,48.8c0,0.8-0.2,1.4-0.7,1.9c-0.5,0.5-1.1,0.8-1.9,0.8c-0.7,0-1.3-0.3-1.8-0.8c-0.5-0.5-0.7-1.2-0.7-1.9
		v-1.1c0-0.8,0.2-1.4,0.7-1.9c0.5-0.5,1.1-0.8,1.8-0.8c0.8,0,1.4,0.3,1.9,0.8c0.5,0.5,0.7,1.2,0.7,1.9V48.8z M160.1,47.7
		c0-0.6-0.2-1.1-0.5-1.4c-0.3-0.4-0.7-0.6-1.3-0.6c-0.5,0-0.9,0.2-1.2,0.6c-0.3,0.4-0.4,0.8-0.4,1.4v1.1c0,0.6,0.1,1.1,0.4,1.4
		c0.3,0.4,0.7,0.6,1.2,0.6c0.5,0,1-0.2,1.3-0.6c0.3-0.4,0.5-0.8,0.5-1.4L160.1,47.7L160.1,47.7z M158.9,52.9h-0.9v-0.9h0.9V52.9z"/>
</g>
<g>
	<path class="st0" d="M69.7,14.8c-0.8-0.6-1.7-1-2.7-1.2c-1-0.2-2.5-0.3-4.6-0.3H50.5v0.4h0.1c0.8,0,1.5,0.2,2.1,0.4
		c0.5,0.2,1,0.6,1.3,1.1c0.2,0.4,0.4,0.8,0.5,1.4c0.1,0.6,0.1,1.4,0.1,2.5v13.7c0,1.3-0.1,2.2-0.2,2.8c-0.1,0.6-0.4,1.1-0.8,1.5
		c-0.4,0.3-0.8,0.6-1.2,0.8c-0.5,0.2-1.1,0.3-1.8,0.3v0.4h12.6v-0.4c-0.8,0-1.4-0.1-1.8-0.3c-0.5-0.2-0.9-0.4-1.2-0.8
		c-0.4-0.4-0.7-0.9-0.8-1.5C59,35.1,59,34.2,59,32.9v-6.7h3.9c1.7,0,2.8,0,3.2-0.1c1.4-0.1,2.6-0.4,3.6-1c1.9-1.1,2.8-2.7,2.8-5
		C72.5,18,71.5,16.2,69.7,14.8z M65.8,24.4c-0.6,0.5-1.2,0.8-1.9,1c-0.7,0.2-1.7,0.3-3,0.3h-1.9V13.9h1.7c1.1,0,1.8,0,2.1,0
		c1.1,0.1,2.1,0.5,2.9,1.1c0.7,0.5,1.2,1.2,1.6,2.1c0.4,0.8,0.6,1.8,0.6,2.8C67.7,21.8,67.1,23.3,65.8,24.4z"/>
	<path class="st0" d="M89.2,36.6c-0.1-0.4-0.2-1-0.2-1.9l0-1.4v-5.4c0-1.3-0.1-2.2-0.4-2.8c-0.3-0.6-0.8-1.2-1.5-1.6
		c-1-0.6-2.3-0.9-3.8-0.9c-1.2,0-2.3,0.2-3.2,0.7c-0.5,0.2-0.9,0.5-1.3,0.8c-0.3,0.3-0.7,0.7-1.2,1.2V12.6l-5.6,0.7v0.4
		c0.6,0,1,0.1,1.3,0.3c0.3,0.1,0.6,0.4,0.8,0.7c0.2,0.3,0.4,0.7,0.4,1.3c0.1,0.5,0.1,1.4,0.1,2.7v14.6c0,1.1,0,1.9-0.1,2.5
		c-0.1,0.6-0.2,1-0.3,1.3c-0.2,0.4-0.5,0.7-0.8,0.9c-0.3,0.2-0.9,0.3-1.7,0.4v0.4h8.6v-0.4c-1-0.2-1.6-0.4-2-0.8
		c-0.3-0.3-0.5-0.6-0.6-1c-0.1-0.4-0.2-1-0.2-1.9l0-1.4v-3c0-4.7,1.6-7.1,4.7-7.1c1.2,0,2.1,0.4,2.8,1.1c0.3,0.4,0.6,0.8,0.7,1.4
		c0.1,0.5,0.2,1.2,0.2,2.1v5.9c0,1,0,1.8-0.1,2.4c-0.1,0.5-0.3,1-0.5,1.3c-0.2,0.3-0.5,0.5-0.8,0.6c-0.3,0.1-0.8,0.2-1.5,0.3v0.4
		h8.6v-0.4c-1-0.2-1.6-0.4-2-0.8C89.5,37.3,89.3,37,89.2,36.6z"/>
	<path class="st0" d="M106.9,37c-0.2-0.3-0.3-0.7-0.4-1.3c-0.1-0.5-0.1-1.4-0.1-2.7V22.9h-5.7v0.4c1,0.2,1.7,0.4,2,0.7
		c0.3,0.3,0.5,0.6,0.6,1c0.1,0.4,0.1,1,0.1,1.8l0,1.4v3.6c0,1.5-0.1,2.5-0.2,3.1c-0.1,0.6-0.4,1.2-0.7,1.7c-0.4,0.5-0.9,0.8-1.5,1.1
		c-0.6,0.3-1.3,0.4-2,0.4c-0.7,0-1.3-0.1-1.8-0.4c-0.5-0.2-0.9-0.6-1.2-1c-0.3-0.4-0.4-0.9-0.5-1.6c-0.1-0.6-0.1-1.6-0.1-3v-9.4
		h-5.7v0.4c1,0.2,1.6,0.4,2,0.7c0.3,0.3,0.5,0.6,0.6,1c0.1,0.4,0.2,1,0.2,1.8l0,1.4v6.5c0,1.4,0.5,2.4,1.4,3.2
		c1,0.8,2.3,1.1,3.9,1.1c2.2,0,4.1-0.8,5.8-2.3c0,0.8,0.1,1.6,0.3,2.3l5.4-0.7V38c-0.6,0-1-0.1-1.3-0.3
		C107.4,37.6,107.1,37.3,106.9,37z"/>
	<path class="st0" d="M162.5,36.9c-0.2-0.3-0.3-0.7-0.4-1.3c-0.1-0.5-0.1-1.4-0.1-2.7V22.8h-5.7v0.4c1,0.2,1.7,0.4,2,0.7
		c0.3,0.3,0.5,0.6,0.6,1c0.1,0.4,0.1,1,0.1,1.8l0,1.4v3.6c0,1.4-0.1,2.5-0.2,3.1c-0.1,0.6-0.4,1.2-0.8,1.7c-0.4,0.5-0.9,0.8-1.5,1.1
		c-0.6,0.3-1.3,0.4-2,0.4c-0.7,0-1.3-0.1-1.8-0.4s-0.9-0.6-1.2-1c-0.3-0.4-0.4-0.9-0.5-1.6c-0.1-0.6-0.1-1.6-0.1-3v-9.4h-5.7v0.4
		c1,0.2,1.7,0.4,2,0.7c0.3,0.3,0.5,0.6,0.6,1c0.1,0.4,0.2,1,0.2,1.8l0,1.4v6.5c0,1.4,0.5,2.4,1.4,3.2c1,0.8,2.3,1.1,3.9,1.1
		c2.2,0,4.1-0.8,5.8-2.3c0,0.8,0.1,1.6,0.3,2.3l5.4-0.7v-0.4c-0.6,0-1-0.1-1.3-0.3C163,37.5,162.8,37.2,162.5,36.9z"/>
	<path class="st0" d="M179,35.7c-0.1,0.6-0.2,1-0.3,1.3c-0.2,0.4-0.5,0.7-0.8,0.9c-0.3,0.2-0.9,0.3-1.7,0.4v0.4h8.6v-0.4
		c-1-0.2-1.6-0.4-2-0.8c-0.3-0.3-0.5-0.6-0.6-1c-0.1-0.4-0.2-1-0.2-1.9v-7.9c0-1.4-0.5-2.4-1.5-3.1c-1-0.7-2.3-1.1-4-1.1
		c-2.2,0-4.1,0.8-5.7,2.3v-0.3c0-0.6-0.1-1.3-0.3-2l-5.3,0.7v0.4c0.6,0,1,0.1,1.3,0.3c0.3,0.2,0.6,0.4,0.8,0.8
		c0.2,0.3,0.4,0.7,0.4,1.2c0.1,0.5,0.1,1.4,0.1,2.7v4.6c0,1.1,0,1.9-0.1,2.5c-0.1,0.6-0.2,1-0.3,1.3c-0.2,0.4-0.5,0.7-0.8,0.9
		c-0.3,0.2-0.9,0.3-1.7,0.4v0.4h8.6v-0.4c-1-0.2-1.6-0.4-2-0.8c-0.3-0.3-0.5-0.6-0.6-1c-0.1-0.4-0.2-1-0.2-1.9l0-1.4v-3.6
		c0-1.5,0.1-2.5,0.2-3.1c0.1-0.6,0.4-1.2,0.8-1.7c0.4-0.5,0.9-0.8,1.5-1.1c0.6-0.3,1.3-0.4,2-0.4c0.7,0,1.3,0.1,1.8,0.4
		c0.6,0.2,1,0.6,1.3,1c0.3,0.4,0.5,0.9,0.6,1.5c0.1,0.6,0.1,1.6,0.1,3v3.9C179.1,34.3,179.1,35.2,179,35.7z"/>
	<path class="st0" d="M199.3,22.9c-0.4-0.3-0.9-0.4-1.6-0.4c-0.6,0-1.1,0.1-1.6,0.3c-0.5,0.2-1,0.5-1.7,1c-1.3-0.8-2.6-1.3-3.9-1.3
		c-0.8,0-1.6,0.2-2.4,0.5c-0.8,0.3-1.5,0.8-2,1.4c-1,1-1.5,2.1-1.5,3.3c0,1,0.3,1.9,0.9,2.7c0.6,0.8,1.5,1.5,2.7,2
		c-1.2,0.3-2,0.6-2.4,0.8c-0.9,0.5-1.3,1.2-1.3,2.1c0,0.8,0.4,1.5,1.2,2.1c0.8,0.6,1.7,0.9,3,0.9l3.1,0.4c1.3,0.1,2.7,1.2,3.4,2.1
		c0.9,1.2,1,2.5,1,3.4c0,2.5-0.9,4.2-2,5c-1.1,0.8-2.3,1.3-4,1.2c-1.7-0.1-3.3-0.9-4.2-1.7c-0.8-0.8-1.4-2.1-1.3-3.4
		c0.1-0.7,0.4-1.4,0.7-1.8c0.3-0.4,0.6-0.5,1.2-0.6c0.3,0,0.4,0,0.7,0c0.2,0.1,0.4,0.4,0.7,0.7l0.4-0.1v-0.2c0-0.5-0.2-1-0.6-1.3
		c-0.4-0.3-0.8-0.5-1.4-0.5c-0.5,0-1.3,0.3-1.9,0.9c-0.8,0.8-1,1.4-1.1,2.7c-0.2,1.3,0.3,2.7,1.1,3.6c1.3,1.8,3.3,2.6,6.1,2.6
		c2.7,0,4.7-0.7,6-2c1.8-1.8,2.1-4,2.2-5.7c0.1-1.6-0.4-4.1-2.3-5.6c-0.5-0.5-1.7-1.3-3-1.6c-1.5-0.4-2.2-0.3-3.7-0.4l-0.9-0.1
		c-2.1,0.1-2.6-0.7-2.5-1.2c0.1-0.9,1-1.4,2.9-1.5c1.4-0.1,2.3-0.2,2.5-0.2c0.9-0.2,1.7-0.5,2.4-1c1.5-0.9,2.2-2.2,2.2-3.9
		c0-1.3-0.5-2.6-1.6-3.8c0.5-0.5,1-0.7,1.5-0.7c0.5,0,0.8,0.2,1.1,0.4l0.5,0.6c0.3,0.4,0.7,0.6,1.1,0.6c0.3,0,0.5-0.1,0.7-0.3
		c0.2-0.2,0.3-0.4,0.3-0.7C200,23.7,199.8,23.3,199.3,22.9z M192.8,31.2c-0.5,0.8-1.3,1.3-2.2,1.3c-0.9,0-1.7-0.4-2.3-1.3
		c-0.6-0.8-0.9-1.9-0.9-3.3c0-0.6,0.1-1.3,0.3-1.9c0.2-0.6,0.4-1.2,0.7-1.6c0.6-0.9,1.3-1.3,2.3-1.3c0.8,0,1.4,0.3,1.9,1
		c0.7,0.9,1,2.1,1,3.7C193.6,29.2,193.4,30.3,192.8,31.2z"/>
	<path class="st0" d="M144.6,37.2c-0.4-0.4-0.7-0.9-0.8-1.5c-0.1-0.6-0.2-1.5-0.2-2.8V19.1c0-1.3,0.1-2.2,0.2-2.8
		c0.1-0.6,0.4-1.1,0.8-1.5c0.4-0.4,0.8-0.6,1.2-0.8c0.5-0.2,1.1-0.3,1.8-0.3v-0.4h-12.4v0.4c0.8,0,1.4,0.1,1.8,0.3
		c0.5,0.2,0.9,0.4,1.2,0.8c0.4,0.4,0.7,0.9,0.8,1.5c0.1,0.6,0.2,1.6,0.2,2.8v6h-13.8v-6c0-1.3,0.1-2.2,0.2-2.8
		c0.1-0.6,0.4-1.1,0.8-1.5c0.4-0.4,0.8-0.6,1.2-0.8c0.5-0.2,1.1-0.3,1.8-0.3v-0.4h-12.4v0.4c0.7,0,1.3,0.1,1.8,0.3
		c0.5,0.2,0.9,0.4,1.2,0.8c0.4,0.4,0.7,0.9,0.8,1.5c0.1,0.6,0.2,1.6,0.2,2.8v13.7c0,1.3-0.1,2.2-0.2,2.8c-0.1,0.6-0.4,1.1-0.8,1.5
		c-0.4,0.3-0.8,0.6-1.2,0.8c-0.5,0.2-1.1,0.3-1.8,0.3v0.4h12.4v-0.4c-0.8,0-1.4-0.1-1.8-0.3c-0.5-0.2-0.9-0.4-1.2-0.8
		c-0.4-0.4-0.7-0.9-0.8-1.5c-0.1-0.6-0.2-1.6-0.2-2.8v-6.9h13.8v6.9c0,1.3-0.1,2.2-0.2,2.8c-0.1,0.6-0.4,1.1-0.8,1.5
		c-0.4,0.3-0.8,0.6-1.2,0.8c-0.5,0.2-1.1,0.3-1.8,0.3v0.4h12.4v-0.4c-0.7,0-1.3-0.1-1.8-0.3C145.4,37.8,145,37.5,144.6,37.2z"/>
</g>
</svg>
